<?xml version="1.0" standalone="no"?>
<!DOCTYPE svg PUBLIC "-//W3C//DTD SVG 20010904//EN"
 "http://www.w3.org/TR/2001/REC-SVG-20010904/DTD/svg10.dtd">
<svg version="1.0" xmlns="http://www.w3.org/2000/svg"
 width="1179.000000pt" height="1179.000000pt" viewBox="0 0 1179.000000 1179.000000"
 preserveAspectRatio="xMidYMid meet">
<metadata>
Created by potrace 1.14, written by Peter Selinger 2001-2017
</metadata>
<g transform="translate(0.000000,1179.000000) scale(0.100000,-0.100000)"
fill="#000000" stroke="none">
<path d="M2756 11317 c-69 -73 -125 -245 -156 -479 -6 -46 -13 -93 -15 -106
-27 -161 -27 -828 0 -1072 54 -476 150 -861 279 -1119 l35 -69 -19 -58 c-23
-67 -23 -67 -8 -58 8 5 9 0 4 -17 -54 -174 -79 -372 -79 -624 0 -398 84 -733
284 -1126 171 -337 401 -641 720 -954 226 -221 416 -376 670 -546 68 -45 126
-83 128 -85 2 -2 -4 -19 -13 -39 -70 -146 -216 -607 -252 -795 -3 -13 -11 -54
-19 -91 -8 -37 -22 -116 -30 -176 -9 -59 -18 -119 -20 -132 -13 -78 -20 -238
-19 -476 0 -287 13 -426 59 -656 32 -156 36 -170 46 -163 27 16 2 -26 -47 -79
l-56 -62 86 -3 c47 -1 86 -7 86 -12 0 -6 -7 -10 -15 -10 -19 0 -19 -11 0 -57
9 -20 12 -40 7 -45 -4 -4 -51 -18 -103 -30 -80 -19 -124 -22 -299 -23 -184 0
-214 2 -289 23 -289 79 -515 281 -656 585 -22 47 -43 86 -46 87 -10 0 -58
-167 -80 -280 -15 -75 -22 -147 -22 -250 -2 -162 11 -251 54 -385 56 -175 129
-294 271 -441 54 -55 98 -107 98 -115 0 -9 -41 -35 -98 -63 -54 -26 -106 -54
-116 -62 -18 -13 -18 -14 -1 -40 10 -15 51 -65 91 -110 76 -85 83 -99 62 -107
-22 -9 199 -218 302 -285 182 -120 390 -207 611 -255 194 -43 282 -52 509 -52
216 1 300 8 528 46 68 11 129 19 136 17 10 -2 7 -18 -14 -60 -16 -32 -28 -58
-27 -59 1 0 31 -3 67 -6 36 -2 67 -6 68 -8 2 -2 -1 -20 -8 -40 -7 -20 -9 -47
-6 -61 11 -44 59 -55 265 -61 600 -18 1207 116 1629 358 160 92 263 170 400
303 125 122 139 129 143 74 1 -10 3 -22 4 -28 1 -5 3 -22 4 -36 1 -25 3 -26
40 -20 l39 6 6 -43 c9 -57 39 -105 73 -113 51 -13 193 41 316 119 60 39 227
183 227 197 0 7 -39 23 -155 66 -11 4 -26 6 -32 5 -22 -3 -14 24 13 50 61 57
183 220 247 331 34 58 137 264 137 273 0 3 9 25 19 48 22 47 89 237 95 270 50
238 59 315 60 487 0 155 -17 288 -64 480 -26 108 -121 332 -188 445 -34 57
-70 112 -84 126 -7 8 -26 34 -42 57 -35 52 -185 205 -241 247 -22 17 -42 32
-45 36 -13 14 -165 109 -176 109 -7 0 -14 4 -16 8 -5 13 -139 73 -149 67 -5
-4 -9 -2 -9 3 0 17 -224 75 -335 87 -33 3 -69 7 -80 9 -16 2 -24 19 -42 87
-40 159 -53 204 -99 341 -64 193 -109 303 -122 300 -20 -4 -13 26 7 33 29 9
310 196 425 282 248 187 555 472 727 678 336 401 558 807 665 1220 59 230 69
312 69 590 -1 271 -12 381 -62 570 -14 55 -27 114 -28 130 -2 38 -11 68 -37
125 -20 43 -20 47 -3 90 93 243 151 457 190 700 3 19 7 46 10 60 3 14 7 45 10
70 3 25 7 54 9 65 2 11 7 58 11 105 4 47 9 99 11 115 22 219 22 699 -1 900 -2
17 -6 59 -9 95 -4 36 -12 92 -18 125 -6 33 -12 69 -13 80 -14 98 -67 258 -105
318 -38 61 -70 81 -114 73 -33 -6 -146 -61 -156 -76 -3 -4 -16 -13 -28 -19
-26 -14 -186 -147 -272 -225 -133 -123 -449 -449 -443 -459 3 -5 2 -7 -4 -4
-6 4 -35 -22 -67 -57 -31 -35 -71 -78 -89 -97 -50 -53 -200 -220 -238 -264
-19 -22 -37 -42 -40 -45 -3 -3 -56 -63 -118 -135 -124 -143 -131 -151 -211
-245 -30 -35 -62 -72 -70 -81 -14 -16 -25 -16 -130 -4 -320 37 -610 49 -1145
50 -362 0 -773 -9 -860 -19 -16 -2 -70 -7 -120 -10 -103 -8 -122 -9 -304 -32
-117 -14 -136 -14 -145 -2 -6 8 -33 41 -61 73 -102 120 -180 210 -190 221 -5
6 -32 37 -60 69 -27 32 -63 72 -80 90 -16 18 -55 61 -85 96 -30 34 -62 70 -70
79 -32 36 -188 208 -255 280 -70 75 -491 496 -536 536 -60 53 -118 101 -148
124 -17 14 -44 35 -58 47 -49 40 -168 102 -211 109 -39 6 -45 4 -76 -29z"/>
</g>
</svg>
